<?xml version="1.0" encoding="UTF-8" standalone="no"?>
<!-- Created with Inkscape (http://www.inkscape.org/) -->

<svg
   xmlns:dc="http://purl.org/dc/elements/1.1/"
   xmlns:cc="http://creativecommons.org/ns#"
   xmlns:rdf="http://www.w3.org/1999/02/22-rdf-syntax-ns#"
   xmlns:svg="http://www.w3.org/2000/svg"
   xmlns="http://www.w3.org/2000/svg"
   version="1.1"
   width="722"
   height="897"
   viewBox="0 0 722 897"
   id="svg3060">
  <title
     id="title3062">BackBone.JS</title>
  <metadata
     id="metadata3079">
    <rdf:RDF>
      <cc:Work
         rdf:about="">
        <dc:format>image/svg+xml</dc:format>
        <dc:type
           rdf:resource="http://purl.org/dc/dcmitype/StillImage" />
        <dc:title>BackBone.JS</dc:title>
      </cc:Work>
    </rdf:RDF>
  </metadata>
  <description
     id="description3064">Created with Sketch (http://www.bohemiancoding.com/sketch)</description>
  <defs
     id="defs3066" />
  <g
     transform="matrix(0.98424152,0,0,0.77985245,7.5892225,193.73369)"
     id="Page 1"
     style="fill:#d8d8d8;fill-rule:evenodd">
    <g
       id="BackBone.JS">
      <path
         d="M 0,0 0,485 361,690.78502 361,550.90277 119.49609,413.23549 119.49609,197 361,334.66728 361,205.78502 0,0 z m 0,0"
         id="Path"
         style="fill:#002a41;stroke:#848484;stroke-width:1" />
      <path
         d="M 722,0 722,485 361,690.78502 361,550.90277 602.50391,413.23549 602.50391,197 361,334.66728 361,205.78502 722,0 z m 0,0"
         id="path3071"
         style="fill:#0071b5;stroke:#848484;stroke-width:1" />
      <path
         d="m 0,896.78502 0,-485 L 361,206 l 0,139.88225 -241.50391,137.66728 0,205.23549 L 361,551.11775 361,691 0,896.78502 z m 0,0"
         id="path3073"
         style="fill:#0071b5;stroke:#848484;stroke-width:1" />
      <path
         d="m 722,896.78502 0,-485 L 361,206 l 0,139.88225 241.50391,137.66728 0,205.23549 L 361,551.11775 361,691 722,896.78502 z m 0,0"
         id="path3075"
         style="fill:#002a41;stroke:#848484;stroke-width:1" />
    </g>
  </g>
  <text
     x="5.5324197"
     y="163.6982"
     transform="scale(0.99650123,1.0035111)"
     id="text3081"
     xml:space="preserve"
     style="font-size:196.36148071px;font-style:normal;font-variant:normal;font-weight:bold;font-stretch:normal;text-align:start;line-height:139.99999762%;letter-spacing:0px;word-spacing:0px;writing-mode:lr-tb;text-anchor:start;fill:#000000;fill-opacity:1;stroke:none;font-family:Poplar Std;-inkscape-font-specification:Poplar Std Bold"><tspan
       x="5.5324197"
       y="163.6982"
       id="tspan3083"
       style="font-size:196.36148071px;font-style:normal;font-variant:normal;font-weight:bold;font-stretch:normal;text-align:start;line-height:139.99999762%;writing-mode:lr-tb;text-anchor:start;font-family:Poplar Std;-inkscape-font-specification:Poplar Std Bold">BACKBONE</tspan></text>
</svg>
