<?xml version="1.0" encoding="UTF-8"?>
<!DOCTYPE svg PUBLIC "-//W3C//DTD SVG 1.1//EN" "http://www.w3.org/Graphics/SVG/1.1/DTD/svg11.dtd">
<svg version="1.1" xmlns="http://www.w3.org/2000/svg" xmlns:xlink="http://www.w3.org/1999/xlink" x="0px" y="0px" width="299.45" height="421.877" viewBox="0, 0, 299.45, 421.877">
  <g id="Layer 1">
    <g>
      <g>
        <path d="M234.093,16.547 L209.404,16.547 L235.079,44.406 L235.079,57.666 L182.196,57.666 L182.196,42.141 L207.866,42.141 L182.196,14.281 L182.196,1 L234.093,1 L234.093,16.547 z" fill="#151515"/>
        <path d="M171.715,16.547 L147.026,16.547 L172.7,44.406 L172.7,57.666 L119.817,57.666 L119.817,42.141 L145.489,42.141 L119.817,14.281 L119.817,1 L171.715,1 L171.715,16.547 z" fill="#151515"/>
        <path d="M109.946,17.178 L83.306,17.178 L83.306,41.491 L109.946,41.491 L109.946,57.666 L64.373,57.666 L64.373,1 L109.946,1 z" fill="#151515"/>
      </g>
      <path d="M28.07,387.156 L1,83.536 L298.45,83.536 L271.353,387.107 L149.543,420.877 z" fill="#1673B6"/>
      <path d="M149.726,395.066 L248.153,367.777 L271.31,108.362 L149.726,108.362 z" fill="#35A9DB"/>
      <g>
        <path d="M149.725,218.362 L199.001,218.362 L202.403,180.23 L149.725,180.23 L149.725,142.991 L149.854,142.991 L243.1,142.991 L242.208,152.982 L233.055,255.598 L149.725,255.598 z" fill="#FFFFFF"/>
        <path d="M149.948,315.069 L149.786,315.116 L108.313,303.916 L105.662,274.219 L85.511,274.219 L68.282,274.219 L73.499,332.687 L149.776,353.863 L149.948,353.814 z" fill="#EBEBEB"/>
        <path d="M195.836,254.021 L191.351,303.891 L149.819,315.102 L149.819,353.844 L226.159,332.687 L226.719,326.396 L233.196,254.021 z" fill="#FFFFFF"/>
        <path d="M149.854,142.991 L149.854,166.119 L149.854,180.138 L149.854,180.23 L60.026,180.23 L60.026,180.23 L59.907,180.23 L59.161,171.86 L57.464,152.982 L56.573,142.991 z" fill="#EBEBEB"/>
        <path d="M149.725,218.366 L149.725,241.495 L149.725,255.512 L149.725,255.603 L108.897,255.603 L108.897,255.603 L108.778,255.603 L108.032,247.235 L106.335,228.357 L105.444,218.366 z" fill="#EBEBEB"/>
      </g>
    </g>
  </g>
  <defs/>
</svg>
