<?xml version="1.0" encoding="UTF-8" standalone="no"?>
<!-- Generator: Adobe Illustrator 15.0.0, SVG Export Plug-In . SVG Version: 6.00 Build 0)  -->

<svg
   xmlns:dc="http://purl.org/dc/elements/1.1/"
   xmlns:cc="http://creativecommons.org/ns#"
   xmlns:rdf="http://www.w3.org/1999/02/22-rdf-syntax-ns#"
   xmlns:svg="http://www.w3.org/2000/svg"
   xmlns="http://www.w3.org/2000/svg"
   xmlns:sodipodi="http://sodipodi.sourceforge.net/DTD/sodipodi-0.dtd"
   xmlns:inkscape="http://www.inkscape.org/namespaces/inkscape"
   version="1.1"
   id="Vrstva_1"
   x="0px"
   y="0px"
   width="818.875"
   height="491.34375"
   viewBox="0 0 818.87501 491.34376"
   enable-background="new 0 0 841.891 595.279"
   xml:space="preserve"
   inkscape:version="0.48.1 "
   sodipodi:docname="Diaľnica_D3.svg"><metadata
   id="metadata23"><rdf:RDF><cc:Work
       rdf:about=""><dc:format>image/svg+xml</dc:format><dc:type
         rdf:resource="http://purl.org/dc/dcmitype/StillImage" /></cc:Work></rdf:RDF></metadata><defs
   id="defs21" /><sodipodi:namedview
   pagecolor="#ffffff"
   bordercolor="#666666"
   borderopacity="1"
   objecttolerance="10"
   gridtolerance="10"
   guidetolerance="10"
   inkscape:pageopacity="0"
   inkscape:pageshadow="2"
   inkscape:window-width="640"
   inkscape:window-height="480"
   id="namedview19"
   showgrid="false"
   fit-margin-top="0"
   fit-margin-left="0"
   fit-margin-right="0"
   fit-margin-bottom="0"
   inkscape:zoom="0.47876711"
   inkscape:cx="404.85174"
   inkscape:cy="242.8605"
   inkscape:window-x="0"
   inkscape:window-y="0"
   inkscape:window-maximized="0"
   inkscape:current-layer="Vrstva_1" />
<path
   d="m 0.09424852,81.96075 v 327.43 c 0,10.698 2.13199998,21.422 6.22699998,31.315 4.0940005,9.896 10.1680005,18.985 17.7480005,26.564 7.574,7.566 16.651,13.646 26.552,17.742 9.896,4.082 20.611,6.214 31.322,6.214 H 736.92625 c 10.699,0 21.421,-2.132 31.316,-6.214 9.895,-4.096 18.983,-10.176 26.552,-17.742 7.579,-7.579 13.646,-16.669 17.753,-26.564 4.083,-9.895 6.215,-20.617 6.215,-31.315 v -327.43 c 0,-10.712 -2.132,-21.429 -6.215,-31.323 -4.106,-9.9 -10.174,-18.979 -17.753,-26.551 -7.567,-7.58 -16.657,-13.654 -26.552,-17.742 -9.896,-4.101 -20.617,-6.232 -31.316,-6.232 H 81.942249 c -10.711,0 -21.427,2.132 -31.322,6.232 -9.9,4.088 -18.978,10.163 -26.552,17.742 -7.579,7.572 -13.653,16.65 -17.7480005,26.551 -4.094,9.895 -6.20199998,20.612 -6.22599998,31.323 z"
   id="path3"
   inkscape:connector-curvature="0"
   style="fill:#ffffff" />
<path
   stroke-miterlimit="10"
   d="m 0.09424852,81.96075 v 327.43 c 0,10.698 2.13199998,21.422 6.22699998,31.315 4.0940005,9.896 10.1680005,18.985 17.7480005,26.564 7.574,7.566 16.651,13.646 26.552,17.742 9.896,4.082 20.611,6.214 31.322,6.214 H 736.92625 c 10.699,0 21.421,-2.132 31.316,-6.214 9.895,-4.096 18.983,-10.176 26.552,-17.742 7.579,-7.579 13.646,-16.669 17.753,-26.564 4.083,-9.895 6.215,-20.617 6.215,-31.315 v -327.43 c 0,-10.712 -2.132,-21.429 -6.215,-31.323 -4.106,-9.9 -10.174,-18.979 -17.753,-26.551 -7.567,-7.58 -16.657,-13.654 -26.552,-17.742 -9.896,-4.101 -20.617,-6.232 -31.316,-6.232 H 81.942249 c -10.711,0 -21.427,2.132 -31.322,6.232 -9.9,4.088 -18.978,10.163 -26.552,17.742 -7.579,7.572 -13.653,16.65 -17.7480005,26.551 -4.094,9.895 -6.20199998,20.612 -6.22599998,31.323 z"
   id="path5"
   inkscape:connector-curvature="0"
   style="fill:none;stroke:#1f1a17;stroke-width:0.21600001;stroke-linejoin:round;stroke-miterlimit:10" />
<g
   id="g7"
   transform="translate(-16.093751,-49.15625)">
	<path
   d="m 48.935,131.117 c 0,-6.429 1.286,-12.856 3.734,-18.79 2.456,-5.935 6.1,-11.382 10.646,-15.934 4.545,-4.539 9.991,-8.182 15.927,-10.638 5.938,-2.455 12.368,-3.74 18.795,-3.74 H 753.02 c 6.422,0 12.844,1.285 18.79,3.74 5.922,2.456 11.38,6.099 15.915,10.638 4.556,4.552 8.187,9.999 10.647,15.934 2.461,5.934 3.74,12.361 3.74,18.79 v 327.43 c 0,6.422 -1.279,12.844 -3.74,18.791 -2.462,5.933 -6.093,11.38 -10.647,15.926 -4.535,4.545 -9.993,8.188 -15.915,10.638 -5.946,2.461 -12.368,3.74 -18.79,3.74 H 98.036 c -6.427,0 -12.855,-1.279 -18.79,-3.74 -5.939,-2.462 -11.386,-6.093 -15.932,-10.638 -4.545,-4.546 -8.188,-9.993 -10.646,-15.926 -2.455,-5.947 -3.722,-12.369 -3.734,-18.791"
   id="path9"
   inkscape:connector-curvature="0"
   style="fill:#d92a27" />
	<path
   d="m 48.935,131.117 c 0,-6.429 1.286,-12.856 3.734,-18.79 2.456,-5.935 6.1,-11.382 10.646,-15.934 4.545,-4.539 9.991,-8.182 15.927,-10.638 5.938,-2.455 12.368,-3.74 18.795,-3.74 H 753.02 c 6.422,0 12.844,1.285 18.79,3.74 5.922,2.456 11.38,6.099 15.915,10.638 4.556,4.552 8.187,9.999 10.647,15.934 2.461,5.934 3.74,12.361 3.74,18.79 v 327.43 c 0,6.422 -1.279,12.844 -3.74,18.791 -2.462,5.933 -6.093,11.38 -10.647,15.926 -4.535,4.545 -9.993,8.188 -15.915,10.638 -5.946,2.461 -12.368,3.74 -18.79,3.74 H 98.036 c -6.427,0 -12.855,-1.279 -18.79,-3.74 -5.939,-2.462 -11.386,-6.093 -15.932,-10.638 -4.545,-4.546 -8.188,-9.993 -10.646,-15.926 -2.455,-5.947 -3.722,-12.369 -3.734,-18.791"
   id="path11"
   inkscape:connector-curvature="0"
   style="fill:#d92a27" />
</g>
<g
   enable-background="new    "
   id="g13"
   transform="translate(-16.093751,-49.15625)">
	<path
   d="m 534.317,161.385 h 2.835 c 33.381,0 60.152,11.781 80.31,35.337 7.937,9.953 11.905,24.063 11.905,42.328 0,22.047 -11.025,40.126 -33.069,54.233 v 0.566 c 9.448,0 18.643,6.679 27.589,20.03 7.181,14.488 10.771,29.479 10.771,44.974 0,29.983 -17.891,54.738 -53.666,74.264 -14.74,6.93 -31.746,10.393 -51.021,10.393 -30.488,0 -56.689,-9.761 -78.609,-29.289 l 29.857,-42.328 h 1.133 c 14.486,12.599 29.857,18.896 46.107,18.896 21.037,0 35.839,-10.833 44.407,-32.502 l 1.7,-9.26 c 0,-18.014 -14.865,-30.485 -44.596,-37.415 l -9.637,-0.567 H 519.2 l -3.779,0.567 -0.567,-0.567 v -0.377 c 4.031,-24.689 6.549,-37.037 7.559,-37.037 h 3.779 c 15.496,0 28.346,-6.865 38.549,-20.598 1.764,-3.401 2.646,-6.613 2.646,-9.637 v -3.402 c 0,-11.338 -7.057,-21.287 -21.164,-29.855 -5.041,-2.141 -9.703,-3.213 -13.984,-3.213 -15.494,0 -29.982,8.881 -43.461,26.645 l -1.701,3.212 h -0.378 l -27.211,-46.675 c 19.397,-19.147 44.341,-28.723 74.829,-28.723 z"
   id="path15"
   inkscape:connector-curvature="0"
   style="fill:#ffffff" />
</g>
<path
   clip-rule="evenodd"
   d="m 234.24925,340.83475 35.642,-0.208 -1.389,0.208 c 12.905,-2.021 25.816,-6.648 38.721,-16.027 l 2.694,-2.082 2.621,-2.18 2.547,-2.276 2.437,-2.389 2.338,-2.473 2.253,-2.56 c 8.254,-9.893 13.175,-19.773 16.406,-29.655 5.267,-16.799 5.485,-33.61 0.81,-50.415 -2.914,-10.053 -7.566,-20.111 -15.428,-30.17 l -2.155,-2.639 -2.277,-2.547 -2.351,-2.455 -2.462,-2.363 -2.558,-2.265 c -9.839,-8.332 -19.69,-13.303 -29.54,-16.591 -8.491,-2.773 -16.976,-4.108 -25.469,-4.304 h -22.761 m -60.762,-57.38 -0.318,284.29 96.245,-0.171 c 20.895,-0.808 41.795,-5.829 62.685,-17.045 l 4.089,-2.302 3.991,-2.423 3.919,-2.572 3.832,-2.693 3.734,-2.816 3.649,-2.938 3.55,-3.062 3.441,-3.17 3.33,-3.294 3.221,-3.392 3.109,-3.49 3,-3.6 2.877,-3.697 2.744,-3.797 2.619,-3.868 2.498,-3.967 2.351,-4.041 2.228,-4.126 2.094,-4.2 c 10.004,-21.157 14.082,-42.315 13.8,-63.479 -0.466,-20.987 -5.168,-41.973 -15.99,-62.966 l -2.24,-4.113 -2.363,-4.041 -2.499,-3.955 -2.632,-3.876 -2.755,-3.789 -2.877,-3.692 -3,-3.594 -3.111,-3.496 -3.231,-3.385 -3.354,-3.282 -3.441,-3.17 -3.55,-3.049 -3.649,-2.939 -3.735,-2.81 -3.844,-2.682 -3.917,-2.559 -4.018,-2.43 -4.065,-2.29 -4.161,-2.155 -4.226,-2.014 c -1.652,-0.716 -3.282,-1.469 -4.921,-2.13 l -5.217,-2.009 -5.277,-1.824 -5.325,-1.653 -5.382,-1.476 -5.432,-1.297 c -6.28,-1.354 -12.556,-2.437 -18.836,-2.981 -3.319,-0.264 -6.644,-0.447 -9.967,-0.521 -29.891,0.013 -59.785,-0.036 -89.673,0.031 z"
   id="path17"
   inkscape:connector-curvature="0"
   style="fill:#ffffff;fill-rule:evenodd" />
</svg>