<?xml version="1.0" encoding="UTF-8"?>
<!DOCTYPE svg PUBLIC "-//W3C//DTD SVG 1.1//EN" "http://www.w3.org/Graphics/SVG/1.1/DTD/svg11.dtd">
<svg version="1.1" xmlns="http://www.w3.org/2000/svg" xmlns:xlink="http://www.w3.org/1999/xlink" x="0px" y="0px" width="299.45" height="421.852" viewBox="0, 0, 299.45, 421.852">
  <g id="Layer 1">
    <g>
      <path d="M28.07,387.132 L1,83.512 L298.45,83.512 L271.352,387.083 L149.543,420.852 z" fill="#E45126"/>
      <path d="M149.725,395.04 L248.152,367.753 L271.31,108.337 L149.725,108.337 z" fill="#F1682B"/>
      <path d="M149.725,220.946 L100.45,220.946 L97.046,182.814 L149.725,182.814 L149.725,145.575 L149.596,145.575 L56.35,145.575 L57.242,155.566 L66.394,258.182 L149.725,258.182 z" fill="#EBEBEB"/>
      <path d="M149.725,317.653 L149.562,317.7 L108.09,306.5 L105.438,276.803 L85.287,276.803 L68.058,276.803 L73.275,335.27 L149.553,356.446 L149.725,356.397 z" fill="#EBEBEB"/>
      <g>
        <path d="M28.675,1 L47.599,1 L47.599,19.696 L64.91,19.696 L64.91,1 L83.835,1 L83.835,57.618 L64.911,57.618 L64.911,38.66 L47.601,38.66 L47.601,57.618 L28.675,57.618 L28.675,1 L28.675,1 z" fill="#020202"/>
        <path d="M108.719,19.776 L92.059,19.776 L92.059,1.001 L144.311,1.001 L144.311,19.776 L127.644,19.776 L127.644,57.619 L108.72,57.619 L108.719,19.776 L108.719,19.776 z" fill="#020202"/>
        <path d="M152.604,1 L172.337,1 L184.474,20.894 L196.601,1 L216.34,1 L216.34,57.618 L197.494,57.618 L197.494,29.555 L184.473,49.685 L184.148,49.685 L171.12,29.555 L171.12,57.618 L152.603,57.618 L152.604,1 L152.604,1 z" fill="#020202"/>
        <path d="M225.758,1 L244.687,1 L244.687,38.903 L271.299,38.903 L271.299,57.617 L225.757,57.617 L225.758,1 L225.758,1 z" fill="#020202"/>
      </g>
      <path d="M149.596,220.946 L149.596,258.182 L195.45,258.182 L191.128,306.474 L149.596,317.686 L149.596,356.429 L225.936,335.27 L226.495,328.979 L235.246,230.945 L236.154,220.946 L226.12,220.946 z" fill="#FFFFFF"/>
      <path d="M149.596,145.575 L149.596,168.703 L149.596,182.722 L149.596,182.814 L239.423,182.814 L239.423,182.814 L239.543,182.814 L240.29,174.444 L241.986,155.566 L242.877,145.575 z" fill="#FFFFFF"/>
    </g>
  </g>
  <defs/>
</svg>
