<?xml version="1.0" encoding="UTF-8"?>
<!DOCTYPE svg PUBLIC "-//W3C//DTD SVG 1.1//EN" "http://www.w3.org/Graphics/SVG/1.1/DTD/svg11.dtd">
<svg version="1.1" xmlns="http://www.w3.org/2000/svg" xmlns:xlink="http://www.w3.org/1999/xlink" x="0px" y="0px" width="299.45" height="421.95" viewBox="0, 0, 299.45, 421.95">
  <g id="Layer 1">
    <g>
      <path d="M28.07,387.229 L1,83.607 L298.45,83.607 L271.352,387.18 L149.543,420.95 z" fill="#E4A227"/>
      <path d="M149.475,394.762 L247.903,367.475 L271.061,108.058 L149.475,108.058 z" fill="#F0BF26"/>
      <g>
        <path d="M202.661,16.546 L177.971,16.546 L203.647,44.406 L203.647,57.666 L150.764,57.666 L150.764,42.14 L176.434,42.14 L150.764,14.281 L150.764,1 L202.661,1 L202.661,16.546 z" fill="#151515"/>
        <path d="M141.346,1.025 L141.346,57.642 L95.803,57.642 L95.803,38.928 L122.416,38.928 L122.416,1.025 L141.344,1.025 L141.346,1.025 z" fill="#020202"/>
      </g>
      <path d="M149.418,317.401 L149.256,317.448 L107.784,306.248 L105.131,276.55 L84.981,276.55 L67.752,276.55 L72.969,335.018 L149.246,356.194 L149.418,356.145 z" fill="#EBEBEB"/>
      <path d="M154.434,257.912 L154.434,220.675 L108.58,220.675 L113.957,162.233 L154.537,161.152 L154.434,122.429 L80.29,122.429 L77.536,149.878 L68.784,247.913 L67.876,257.912 L77.911,257.912 z" fill="#EBEBEB"/>
      <path d="M154.182,161.204 L154.345,161.158 L195.016,163.607 L198.467,202.054 L218.618,202.054 L235.848,202.054 L229.334,130.108 L154.354,122.412 L154.182,122.46 z" fill="#FFFFFF"/>
      <path d="M232.009,161.318 L228.818,122.429 L150.215,122.429 L150.215,146.581 L150.215,161.221 L150.215,161.318 L232.009,161.318" fill="#FFFFFF"/>
      <path d="M149.289,220.693 L149.289,257.929 L195.143,257.929 L190.821,306.223 L149.289,317.434 L149.289,356.176 L225.629,335.018 L226.188,328.727 L234.94,230.692 L235.848,220.693 L225.813,220.693 z" fill="#FFFFFF"/>
      <path d="M227.225,159.668" fill="#FFFFFF"/>
    </g>
  </g>
  <defs/>
</svg>
